<svg xmlns="http://www.w3.org/2000/svg" viewBox="0 0 100 100">
  <circle cx="50" cy="50" r="48" fill="#ffffff" stroke="#059669" stroke-width="2"/>
  <polygon points="50,15 62,28 58,45 42,45 38,28" fill="#059669"/>
  <polygon points="75,35 85,50 75,65 62,55 62,45" fill="#059669"/>
  <polygon points="65,78 50,85 35,78 38,62 62,62" fill="#059669"/>
  <polygon points="25,65 15,50 25,35 38,45 38,55" fill="#059669"/>
  <polygon points="50,15 38,28 25,20" fill="none" stroke="#059669" stroke-width="1.5"/>
  <polygon points="50,15 62,28 75,20" fill="none" stroke="#059669" stroke-width="1.5"/>
  <polygon points="75,35 85,50 95,40" fill="none" stroke="#059669" stroke-width="1.5"/>
  <polygon points="75,65 85,50 95,60" fill="none" stroke="#059669" stroke-width="1.5"/>
  <polygon points="65,78 75,65 85,80" fill="none" stroke="#059669" stroke-width="1.5"/>
  <polygon points="35,78 25,65 15,80" fill="none" stroke="#059669" stroke-width="1.5"/>
  <polygon points="25,35 15,50 5,40" fill="none" stroke="#059669" stroke-width="1.5"/>
  <polygon points="25,65 15,50 5,60" fill="none" stroke="#059669" stroke-width="1.5"/>
  <polygon points="50,15 38,28 25,20" fill="none" stroke="#059669" stroke-width="1.5"/>
  <circle cx="50" cy="50" r="48" fill="none" stroke="#059669" stroke-width="2"/>
</svg>